<?xml version="1.0" encoding="UTF-8" standalone="no"?>
<!-- Created with Inkscape (http://www.inkscape.org/) -->

<svg
   xmlns:dc="http://purl.org/dc/elements/1.1/"
   xmlns:cc="http://creativecommons.org/ns#"
   xmlns:rdf="http://www.w3.org/1999/02/22-rdf-syntax-ns#"
   xmlns:svg="http://www.w3.org/2000/svg"
   xmlns="http://www.w3.org/2000/svg"
   xmlns:sodipodi="http://sodipodi.sourceforge.net/DTD/sodipodi-0.dtd"
   xmlns:inkscape="http://www.inkscape.org/namespaces/inkscape"
   width="405.11383"
   height="454.75275"
   id="svg4868"
   version="1.1"
   inkscape:version="0.48.1 r9760"
   sodipodi:docname="loudspeaker.svg">
  <defs
     id="defs4870">
    <clipPath
       clipPathUnits="userSpaceOnUse"
       id="clipPath11388">
      <path
         inkscape:connector-curvature="0"
         d="m 0,1458.48 1420.5,0 0,-1458.42 L 0,0.06 0,1458.48 z"
         id="path11390" />
    </clipPath>
    <clipPath
       clipPathUnits="userSpaceOnUse"
       id="clipPath11388-1">
      <path
         inkscape:connector-curvature="0"
         d="m 0,1458.48 1420.5,0 0,-1458.42 L 0,0.06 0,1458.48 z"
         id="path11390-7" />
    </clipPath>
  </defs>
  <sodipodi:namedview
     id="base"
     pagecolor="#ffffff"
     bordercolor="#666666"
     borderopacity="1.0"
     inkscape:pageopacity="0.0"
     inkscape:pageshadow="2"
     inkscape:zoom="0.99"
     inkscape:cx="236.94523"
     inkscape:cy="158.81726"
     inkscape:document-units="px"
     inkscape:current-layer="layer1"
     showgrid="false"
     fit-margin-top="6"
     fit-margin-left="6"
     fit-margin-right="6"
     fit-margin-bottom="6"
     inkscape:window-width="1680"
     inkscape:window-height="883"
     inkscape:window-x="-8"
     inkscape:window-y="-8"
     inkscape:window-maximized="1" />
  <metadata
     id="metadata4873">
    <rdf:RDF>
      <cc:Work
         rdf:about="">
        <dc:format>image/svg+xml</dc:format>
        <dc:type
           rdf:resource="http://purl.org/dc/dcmitype/StillImage" />
        <dc:title></dc:title>
      </cc:Work>
    </rdf:RDF>
  </metadata>
  <g
     inkscape:label="Layer 1"
     inkscape:groupmode="layer"
     id="layer1"
     transform="translate(-24.127598,-236.42663)">
    <g
       id="g5912"
       transform="matrix(0.8660254,-0.5,0.5,0.8660254,-211.43438,168.8522)">
      <path
         id="path11394"
         transform="translate(14.380938,269.1399)"
         d="m 154.75,6 c -22.245,0 -42.23,9.73125 -60,29.34375 4.345,2.9 5.115,5.80625 2.21875,8.96875 -1.71125,2.1125 -4.32125,1.3 -7.875,-2.125 C 83.565,49.025 78.4325,56.9375 73.5625,65.625 c -11.32,20.0125 -19.62,41.9875 -25.28125,65.8125 -14.7425,1.325 -26.58875,14.5 -35.40625,39.5 -4.1454674,11.88843 -6.4134979,23.9222 -6.8125,36.09375 L 28.625,206.3125 c 0.349002,-6.09778 1.019503,-12.22809 2,-18.40625 2.5,-16.7125 6.8575,-26.83125 12.78125,-30.65625 -0.65875,4.6125 -1.32375,9.46875 -1.71875,14.34375 5.26625,0.525 8.1675,2.88125 8.5625,7.21875 0.6575,5.4 -2.64375,8.56875 -9.75,9.21875 -0.326683,5.8638 -0.552879,11.82822 -0.625,17.9375 l 21.1875,-0.6875 c 0.182665,-17.52391 1.607634,-34.04022 4.0625,-49.625 2.50125,-14.7375 5.93125,-28.55625 10.40625,-41.71875 3.95,-11.325 8.66625,-22.1125 14.0625,-32.25 C 108.55,46.675 131.585,29.15625 158.4375,29.15625 c 26.85375,0 49.765,17.51875 68.71875,52.53125 17.6729,32.88903 27.19559,71.94958 28.40625,117.40625 l 14.09375,-0.4375 c -0.8937,-32.68171 -5.72109,-62.514 -14.46875,-89.46875 -2.89625,0.125 -4.86,-0.925 -5.78125,-3.5625 -1.0525,-2.5 -0.51375,-5.2375 1.59375,-8.125 -4.2125,-11.2 -9.21375,-21.7375 -14.875,-31.875 -12.89875,-22.6375 -26.98625,-38.8125 -42.78125,-48.5625 -3.6875,4.35 -6.5975,5.65 -8.96875,3.8125 -2.5,-1.85 -2.89125,-4.8625 -1.3125,-8.9375 C 174.1125,7.9875 164.6225,6 154.75,6 z m 5.15625,29.625 c -25.01,0 -46.48,16.83125 -64.25,50.65625 -5.1325,9.75 -9.6025,20.15625 -13.15625,31.21875 -4.2125,12.5 -7.51375,25.9125 -9.75,40.125 -0.52625,3.425 -1.04375,6.84375 -1.4375,10.53125 l 0.90625,0.15625 c 1.8425,-5.2625 4.08125,-10.41875 6.84375,-15.15625 9.3475,-16.5875 20.68,-25 33.84375,-25 13.2925,0 24.5,8.4125 33.84375,25 7.72795,13.91072 12.28931,30.24188 13.5625,48.96875 l 90.40625,-2.875 C 249.58529,155.55142 240.82161,117.89364 224.28125,86.28125 206.6425,52.45625 185.0475,35.625 159.90625,35.625 z M 93.4375,178.6875 c -4.60625,0 -8.56,3.575 -11.71875,10.6875 -2.10625,4.6 -3.43625,9.725 -4.09375,15.25 l 0,0.125 18.96875,-0.59375 c 0.176787,-5.23707 0.669151,-10.02819 1.4375,-14.40625 1.3175,-6.975 0.12875,-10.675 -3.6875,-11.0625 l -0.90625,0 z M 6,211.6875 c 0.097131,15.31129 3.1335104,30.85224 9.09375,46.65625 6.84625,17.9 18.58,30.93125 35.5625,39.09375 3.9475,14.475 8.8125,28.1625 15,41.0625 5.265,-3.95 8.6825,-4.4625 10,-1.3125 1.31625,2.9 -0.5425,6.8375 -5.28125,11.3125 1.05375,1.8375 2.13375,3.69375 3.1875,5.40625 21.45625,38.0375 47.12,57.9125 77,59.5 1.0525,-5.5375 2.215,-8.3125 3.53125,-8.3125 3.16125,-0.6625 4.495,2.375 3.96875,8.5625 28.56375,-1.325 53.28875,-19.0875 74.21875,-53.3125 -1.71125,-1.975 -2.49,-3.56875 -2.09375,-5.28125 1.31625,-2.1 3.17,-2.1 5.40625,0 0,-0.3875 0.2675,-0.76875 0.53125,-1.15625 17.90125,-31.6 28.69,-68.60625 32.375,-110.71875 -2.6325,-1.7125 -3.96875,-3.8125 -3.96875,-6.3125 0,-3.025 1.59125,-4.7375 4.75,-5 0.20416,-3.67609 0.32342,-7.41967 0.40625,-11.21875 l -14.15625,-0.5 c -1.33524,44.8701 -10.84575,83.47421 -28.375,115.96875 -18.95375,35.15 -41.865,52.65625 -68.71875,52.65625 C 131.585,388.78125 108.55,371.275 89.59375,336.125 85.515,328.75 82.0975,321.13125 78.9375,313.09375 78.80625,312.83125 78.69375,312.45 78.5625,312.1875 L 75.53125,304 C 66.20577,277.15573 61.450796,247.03646 61.0625,213.5625 L 39.875,212.84375 c 0.129556,18.40066 1.441402,35.98311 4.0625,52.46875 0.1325,1.3125 0.4,2.625 0.53125,3.8125 -7.8975,-5.7875 -12.9,-16.5875 -14.875,-32.375 -0.991905,-8.00937 -1.401013,-16.12484 -1.21875,-24.3125 L 6,211.6875 z m 71.0625,2.40625 -0.09375,1.46875 0.65625,10.78125 c 0.6575,5.6625 1.9875,10.68125 4.09375,15.15625 3.15875,7.2375 7.1125,10.90625 11.71875,10.90625 0.26375,0 0.51125,0.0125 0.90625,-0.125 3.81625,-0.3875 5.3925,-3.81875 4.46875,-10.40625 -0.92,-7.1 -1.56625,-15.675 -2.09375,-25.8125 -0.02328,-0.4468 -0.04329,-0.87128 -0.0625,-1.3125 L 77.0625,214.09375 z m 83.5625,2.84375 c -0.47827,21.93993 -5.15368,40.7074 -13.875,56.40625 -9.34375,16.5875 -20.55125,24.875 -33.84375,24.875 -13.16375,0 -24.49625,-8.2875 -33.84375,-24.875 -1.97375,-3.55 -3.675,-7.125 -5.125,-10.9375 l -0.375,0.15625 c 2.76375,15.525 6.58375,30.8 11.71875,45.9375 0.13,0.3875 0.245,0.63125 0.375,1.03125 2.8975,7.6375 6.1825,15.025 10,22.125 17.77,33.825 39.24,50.8125 64.25,50.8125 25.14125,0 46.73625,-16.9875 64.375,-50.8125 C 240.68675,300.42856 249.43988,263.22905 250.6875,220 l -90.0625,-3.0625 z"
         style="fill:#231f20;fill-opacity:1;fill-rule:nonzero;stroke:none"
         inkscape:connector-curvature="0" />
      <path
         id="path5849"
         transform="translate(14.380938,269.1399)"
         d="M 319.84375,8.78125 314.78125,28.25 c 6.16737,7.72567 12.02091,16.63627 17.34375,26.59375 19.39601,36.284349 32.20773,86.1575 34.03125,141.65625 l 17.75,-0.5 C 382.03871,138.85196 368.9875,87.333224 348.3125,48.65625 340.02676,33.15601 330.52051,19.70301 319.84375,8.78125 z m -7.4375,27.90625 -5.84375,22.34375 c 18.9041,35.364114 31.36699,84.09423 33.03125,138.25 l 17.21875,-0.5 C 355.1099,141.03199 342.42868,90.752536 322.28125,53.0625 c -3.09549,-5.79078 -6.43326,-11.20269 -9.875,-16.375 z m -9.25,34.5 -7.09375,27.0625 c 9.81634,29.01198 16.01784,63.0915 17.03125,99.78125 l 16.6875,-0.46875 c -1.30416,-47.82122 -10.9932,-91.51435 -26.625,-126.375 z m -11.9375,43.40625 -9.0625,34.6875 c 2.51001,15.782 4.08043,32.36771 4.4375,49.53125 l 16.125,-0.46875 c -0.62675,-29.97444 -4.71903,-58.24046 -11.5,-83.75 z m -4.8125,105.21875 c -0.71405,19.06865 -2.92348,37.35113 -6.25,54.5625 l 9.3125,30.59375 c 7.4199,-25.54417 12.0144,-54.21922 13.09375,-84.65625 l -16.15625,-0.5 z m 26.625,0.84375 c -1.18036,38.15266 -7.90247,73.50799 -18.53125,103.125 l 7.53125,24.625 c 16.1135,-34.89378 26.19426,-78.89625 27.6875,-127.25 l -16.6875,-0.5 z m 26.59375,0.8125 c -1.59478,54.37718 -14.09299,103.29478 -33.0625,138.78125 -0.26528,0.49627 -0.54469,0.91527 -0.8125,1.40625 l 6.46875,21.21875 c 3.51064,-5.25811 6.91077,-10.76026 10.0625,-16.65625 C 342.49274,328.40887 355.20595,277.95767 356.84375,222 L 339.625,221.46875 z m 26.5625,0.84375 c -1.62442,56.15038 -14.47717,106.64275 -34.0625,143.28125 -5.30652,9.92696 -11.13487,18.81408 -17.28125,26.53125 l 5.6875,18.65625 c 10.38343,-10.78628 19.68305,-23.85059 27.78125,-39 20.86781,-39.03765 33.98249,-91.15125 35.65625,-148.9375 L 366.1875,222.3125 z"
         style="font-size:medium;font-style:normal;font-variant:normal;font-weight:normal;font-stretch:normal;text-indent:0;text-align:start;text-decoration:none;line-height:normal;letter-spacing:normal;word-spacing:normal;text-transform:none;direction:ltr;block-progression:tb;writing-mode:lr-tb;text-anchor:start;baseline-shift:baseline;color:#000000;fill:#231f20;fill-opacity:1;stroke:none;stroke-width:13.0684824;marker:none;visibility:visible;display:inline;overflow:visible;enable-background:accumulate;font-family:Sans;-inkscape-font-specification:Sans"
         inkscape:connector-curvature="0" />
    </g>
  </g>
</svg>
